HIERARCHY
ROOT pelvis
{
  OFFSET 0 100 0
  CHANNELS 6 Xposition Yposition Zposition Zrotation Xrotation Yrotation
  JOINT pelvis_right_femur
  {
    OFFSET -10.78128 -3.44521 -0.5502486
    CHANNELS 3 Zrotation Xrotation Yrotation
    JOINT right_femur_tibia
    {
      OFFSET -0.8047443 -44.0398 -0.1307829
      CHANNELS 3 Zrotation Xrotation Yrotation
      JOINT right_tibia_foot
      {
        OFFSET 3.006224 -47.83518 -5
        CHANNELS 3 Zrotation Xrotation Yrotation
        End Site
        {
          OFFSET 0 -5 15
        }
      }
    }
  }
  JOINT pelvis_left_femur
  {
    OFFSET 10.78128 -3.44521 -0.5502486
    CHANNELS 3 Zrotation Xrotation Yrotation
    JOINT left_femur_tibia
    {
      OFFSET 0.8047443 -44.0398 -0.1307829
      CHANNELS 3 Zrotation Xrotation Yrotation
      JOINT left_tibia_foot
      {
        OFFSET -4.370144 -48.10324 -4.275266
        CHANNELS 3 Zrotation Xrotation Yrotation
        End Site
        {
          OFFSET 0 -5 15
        }
      }
    }
  }
  JOINT pelvis_spine1
  {
    OFFSET 0 6.468898 -3.129235
    CHANNELS 3 Zrotation Xrotation Yrotation
    JOINT spine1
    {
      OFFSET 0 23.15396 4.99043
      CHANNELS 3 Zrotation Xrotation Yrotation
      JOINT spine2
      {
        OFFSET 0 20.79997 -5.064912
        CHANNELS 3 Zrotation Xrotation Yrotation
        JOINT neck
        {
          OFFSET 0 14.38658 9.616178
          CHANNELS 3 Zrotation Xrotation Yrotation
          End Site
          {
            OFFSET 0 20 0
          }
        }
      }
      JOINT right_manubrium
      {
        OFFSET -5.722621 16.35077 3.967754
        CHANNELS 3 Zrotation Xrotation Yrotation
        JOINT right_clavicle
        {
          OFFSET -13.16364 1.694482 -4.693211
          CHANNELS 3 Zrotation Xrotation Yrotation
          JOINT right_humerus
          {
            OFFSET -28.5034 -0.3100689 -2.792744
            CHANNELS 3 Zrotation Xrotation Yrotation
            JOINT right_radius
            {
              OFFSET -25.15693 0.02248979 -1.271978
              CHANNELS 3 Zrotation Xrotation Yrotation
              End Site
              {
                OFFSET -15 0 0
              }
            }
          }
        }
      }
      JOINT left_manubrium
      {
        OFFSET 5.722621 16.35077 3.967754
        CHANNELS 3 Zrotation Xrotation Yrotation
        JOINT left_clavicle
        {
          OFFSET 13.16364 1.694482 -4.693211
          CHANNELS 3 Zrotation Xrotation Yrotation
          JOINT left_humerus
          {
            OFFSET 29.39168 -1.063119 -2.237045
            CHANNELS 3 Zrotation Xrotation Yrotation
            JOINT left_radius
            {
              OFFSET 24.59957 -0.9528479 0.9047498
              CHANNELS 3 Zrotation Xrotation Yrotation
              End Site
              {
                OFFSET 15 -0 -0
              }
            }
          }
        }
      }
    }
  }
}
MOTION
Frames: 15
Frame Time: 0.0416666666667
-1633.054 173.5973 1681.829 -7.459119 6.460809 -131.3187 4.345134 0.7706509 -7.508295 -0 7.41821 -0 -16.74022 4.000026 3.147645 -0.0834846 -6.411753 -2.599616 -0 14.99372 -0 6.514086 -8.469629 17.19677 0.2537527 -2.837113 5.0657 -0.5180648 16.52418 -5.756444 0.9427696 21.95195 3.865912 2.752961 -18.9496 4.301321 -5.654998 -26.39376 11.79049 94.5003 14.79352 -14.08812 -0 0 16.24646 -26.88799 8.705575 12.22122 6.722476 -27.62066 -9.029988 -88.51312 2.55707 21.34851 0 0 -14.43713 21.84386 13.21114 -15.62774
-1638.341 173.4568 1677.899 -7.419099 6.506786 -131.6731 4.345129 0.7706221 -7.508298 -0 7.418224 -0 -16.74023 4.00004 3.147646 -0.08349152 -6.411724 -2.599622 -0 14.99371 -0 6.514092 -8.46964 17.19677 0.2537511 -2.837115 5.065695 -0.5180636 16.52418 -5.756447 0.9427692 21.95195 3.865914 2.752962 -18.9496 4.301322 -5.654998 -26.39375 11.79049 94.5003 14.79352 -14.08812 -0 0 16.24645 -26.88799 8.705574 12.22121 6.722478 -27.62067 -9.02999 -88.51311 2.557067 21.3485 0 0 -14.43714 21.84387 13.21114 -15.62775
-1643.605 173.3164 1673.935 -7.37879 6.552516 -132.0276 4.345126 0.7705897 -7.508302 -0 7.418229 -0 -16.74023 4.000054 3.147647 -0.08349787 -6.411692 -2.599628 -0 14.99369 -0 6.514098 -8.46965 17.19677 0.2537504 -2.837116 5.065691 -0.518062 16.52418 -5.756451 0.9427686 21.95195 3.865915 2.752962 -18.9496 4.301323 -5.654999 -26.39375 11.79049 94.50031 14.79352 -14.08814 -0 0 16.24644 -26.88799 8.705572 12.22121 6.72248 -27.62068 -9.029993 -88.51311 2.557063 21.34848 0 0 -14.43715 21.84388 13.21114 -15.62776
-1648.843 173.1759 1669.94 -7.338193 6.597998 -132.3821 4.345124 0.7705554 -7.508306 -0 7.418226 -0 -16.74024 4.000068 3.147649 -0.08350338 -6.41166 -2.599632 -0 14.99369 -0 6.514104 -8.469659 17.19677 0.2537503 -2.837118 5.065686 -0.5180599 16.52418 -5.756456 0.942768 21.95195 3.865916 2.752963 -18.94961 4.301323 -5.655001 -26.39375 11.79049 94.50032 14.79352 -14.08815 -0 0 16.24643 -26.88798 8.705571 12.22121 6.722482 -27.62068 -9.029996 -88.5131 2.557057 21.34847 0 0 -14.43716 21.84389 13.21114 -15.62778
-1654.057 173.0354 1665.912 -7.29731 6.64323 -132.7367 4.345124 0.7705211 -7.508312 -0 7.418214 -0 -16.74025 4.00008 3.14765 -0.08350784 -6.411628 -2.599635 -0 14.99369 -0 6.514109 -8.469666 17.19676 0.253751 -2.83712 5.065682 -0.5180576 16.52419 -5.75646 0.9427674 21.95195 3.865916 2.752964 -18.94961 4.301323 -5.655003 -26.39375 11.79049 94.50033 14.79351 -14.08816 -0 0 16.24641 -26.88798 8.705569 12.2212 6.722485 -27.62069 -9.029999 -88.5131 2.557049 21.34846 0 0 -14.43718 21.8439 13.21114 -15.6278
-1659.246 172.895 1661.851 -7.256141 6.68821 -133.0913 4.345125 0.7704885 -7.508317 -0 7.418195 -0 -16.74026 4.000089 3.147652 -0.0835111 -6.411599 -2.599636 -0 14.9937 -0 6.514114 -8.469672 17.19676 0.2537523 -2.837121 5.065677 -0.5180552 16.52419 -5.756465 0.9427667 21.95195 3.865917 2.752964 -18.94961 4.301322 -5.655006 -26.39374 11.79049 94.50034 14.79351 -14.08818 -0 0 16.2464 -26.88797 8.705568 12.22119 6.722487 -27.6207 -9.030002 -88.51309 2.557041 21.34845 0 0 -14.4372 21.84392 13.21114 -15.62782
-1664.409 172.7545 1657.759 -7.214689 6.732936 -133.446 4.345126 0.7704588 -7.508322 -0 7.418171 -0 -16.74027 4.000097 3.147653 -0.08351307 -6.411573 -2.599636 -0 14.99371 -0 6.514118 -8.469675 17.19675 0.2537541 -2.837123 5.065674 -0.5180528 16.52419 -5.756469 0.9427661 21.95195 3.865916 2.752965 -18.94961 4.301321 -5.655009 -26.39374 11.79049 94.50035 14.7935 -14.08819 -0 0 16.24639 -26.88797 8.705568 12.22119 6.722489 -27.62071 -9.030005 -88.51309 2.557033 21.34843 0 0 -14.43721 21.84393 13.21113 -15.62783
-1669.547 172.6141 1653.634 -7.172955 6.777407 -133.8008 4.345129 0.7704335 -7.508327 -0 7.418143 -0 -16.74028 4.000102 3.147655 -0.08351374 -6.411552 -2.599635 -0 14.99373 -0 6.514121 -8.469677 17.19675 0.2537562 -2.837124 5.065671 -0.5180505 16.52419 -5.756473 0.9427656 21.95195 3.865916 2.752965 -18.94962 4.30132 -5.655012 -26.39374 11.79049 94.50036 14.7935 -14.0882 -0 0 16.24638 -26.88797 8.705567 12.22118 6.722491 -27.62072 -9.030008 -88.51308 2.557024 21.34842 0 0 -14.43723 21.84394 13.21113 -15.62785
-1674.659 172.4736 1649.478 -7.130941 6.82162 -134.1557 4.345133 0.7704135 -7.508331 -0 7.418112 -0 -16.74029 4.000104 3.147656 -0.08351316 -6.411536 -2.599632 -0 14.99375 -0 6.514122 -8.469677 17.19675 0.2537587 -2.837125 5.065669 -0.5180484 16.5242 -5.756477 0.9427651 21.95195 3.865915 2.752965 -18.94962 4.301319 -5.655015 -26.39374 11.79049 94.50037 14.79349 -14.08821 -0 0 16.24637 -26.88796 8.705567 12.22118 6.722493 -27.62073 -9.03001 -88.51308 2.557016 21.34842 0 0 -14.43724 21.84395 13.21113 -15.62786
-1679.746 172.3332 1645.29 -7.088648 6.865575 -134.5106 4.345137 0.7703993 -7.508334 -0 7.418081 -0 -16.74029 4.000104 3.147657 -0.08351144 -6.411525 -2.599629 -0 14.99378 -0 6.514123 -8.469675 17.19674 0.2537613 -2.837125 5.065668 -0.5180466 16.5242 -5.756479 0.9427647 21.95195 3.865914 2.752965 -18.94962 4.301317 -5.655017 -26.39374 11.79049 94.50037 14.79349 -14.08822 -0 0 16.24636 -26.88796 8.705567 12.22117 6.722494 -27.62074 -9.030012 -88.51308 2.557009 21.34841 0 0 -14.43725 21.84396 13.21113 -15.62788
-1684.806 172.1927 1641.071 -7.046078 6.909268 -134.8656 4.345141 0.7703914 -7.508337 -0 7.41805 -0 -16.7403 4.000102 3.147657 -0.08350872 -6.411521 -2.599625 -0 14.9938 -0 6.514122 -8.469671 17.19674 0.2537639 -2.837126 5.065668 -0.5180452 16.5242 -5.756481 0.9427644 21.95195 3.865913 2.752965 -18.94962 4.301316 -5.65502 -26.39374 11.79049 94.50038 14.79349 -14.08823 -0 0 16.24636 -26.88796 8.705568 12.22117 6.722495 -27.62074 -9.030014 -88.51307 2.557003 21.34841 0 0 -14.43726 21.84397 13.21113 -15.62789
-1689.84 172.0523 1636.821 -7.003232 6.952699 -135.2206 4.345146 0.7703897 -7.508339 -0 7.418022 -0 -16.7403 4.000097 3.147657 -0.08350521 -6.411522 -2.59962 -0 14.99382 -0 6.514121 -8.469666 17.19674 0.2537663 -2.837126 5.065669 -0.5180442 16.5242 -5.756482 0.9427643 21.95194 3.865912 2.752965 -18.94962 4.301314 -5.655022 -26.39374 11.79049 94.50038 14.79349 -14.08823 -0 0 16.24635 -26.88796 8.705569 12.22117 6.722495 -27.62075 -9.030015 -88.51307 2.556999 21.34841 0 0 -14.43726 21.84397 13.21113 -15.62789
-1694.848 171.9118 1632.539 -6.960112 6.995866 -135.5757 4.34515 0.7703939 -7.508339 -0 7.417996 -0 -16.7403 4.000091 3.147657 -0.08350111 -6.411528 -2.599615 -0 14.99384 -0 6.514118 -8.46966 17.19673 0.2537686 -2.837125 5.06567 -0.5180437 16.5242 -5.756482 0.9427643 21.95194 3.86591 2.752965 -18.94962 4.301313 -5.655023 -26.39374 11.79049 94.50038 14.79348 -14.08823 -0 0 16.24635 -26.88796 8.705569 12.22117 6.722495 -27.62075 -9.030015 -88.51307 2.556995 21.34841 0 0 -14.43726 21.84398 13.21113 -15.62789
-1699.829 171.7714 1628.226 -6.916719 7.038767 -135.9309 4.345154 0.7704034 -7.508339 -0 7.417976 -0 -16.74031 4.000083 3.147657 -0.08349667 -6.411539 -2.59961 -0 14.99386 -0 6.514115 -8.469653 17.19673 0.2537705 -2.837125 5.065672 -0.5180436 16.5242 -5.756482 0.9427643 21.95194 3.865909 2.752964 -18.94962 4.301312 -5.655025 -26.39374 11.79049 94.50038 14.79348 -14.08823 -0 0 16.24636 -26.88796 8.70557 12.22117 6.722494 -27.62075 -9.030015 -88.51308 2.556994 21.34841 0 0 -14.43726 21.84398 13.21113 -15.62789
-1704.783 171.6309 1623.883 -6.873055 7.0814 -136.2862 4.345158 0.7704175 -7.508338 -0 7.41796 -0 -16.7403 4.000074 3.147657 -0.08349211 -6.411554 -2.599605 -0 14.99388 -0 6.514112 -8.469646 17.19673 0.253772 -2.837124 5.065674 -0.5180439 16.5242 -5.75648 0.9427645 21.95194 3.865908 2.752964 -18.94962 4.301311 -5.655025 -26.39374 11.79049 94.50038 14.79348 -14.08822 -0 0 16.24636 -26.88796 8.705571 12.22117 6.722493 -27.62075 -9.030015 -88.51308 2.556994 21.34841 0 0 -14.43726 21.84397 13.21113 -15.62789
